<?xml version="1.0" encoding="UTF-8"?>
<svg xmlns="http://www.w3.org/2000/svg" xmlns:xlink="http://www.w3.org/1999/xlink" viewBox="0 0 7690 10250">
	<g id="fondo">
		<image id="fondoescenario" width="7690" height="10250" xlink:href="fondo.png"/>
	</g>
	<g id="piernas" class="carousel slide .carousel-fade p-0 m-0">
		<g id="arregloPiernas" class="carousel-inner p-0 m-0">
			<g id="piernasAndres" class="carousel-item p-0 m-0">
				<image id="Capa_73_Imagen" data-name="Capa 73 Imagen" width="1437" height="1678" transform="translate(2509.93 6368.37) scale(1.78)" xlink:href="Vestir_personajes1.png"/>
			</g>
			<g id="piernasBarbara" class="carousel-item p-0 m-0">
				<image id="Capa_56_Imagen" data-name="Capa 56 Imagen" width="2454" height="1683" transform="translate(1347.53 6368.37) scale(1.78)" xlink:href="Vestir_personajes2.png"/>
			</g>
			<g id="piernasNicolas" class="carousel-item p-0 m-0">
				<image id="Capa_67_Imagen" data-name="Capa 67 Imagen" width="911" height="1740" transform="translate(3015.48 6368.37) scale(1.78)" xlink:href="Vestir_personajes3.png"/>
			</g>
			<g id="piernasLunas" class="carousel-item p-0 m-0">
				<image id="Capa_70_Imagen" data-name="Capa 70 Imagen" width="1743" height="1689" transform="translate(2214.44 6368.37) scale(1.78)" xlink:href="Vestir_personajes4.png"/>
			</g>
			<g id="piernasVictor" class="carousel-item p-0 m-0">
				<image id="Capa_59_Imagen" data-name="Capa 59 Imagen" width="1188" height="1678" transform="translate(2780.5 6368.37) scale(1.78)" xlink:href="Vestir_personajes5.png"/>
			</g>
			<g id="piernasMariana" class="carousel-item p-0 m-0">
				<image id="Capa_64_Imagen" data-name="Capa 64 Imagen" width="2282" height="1653" transform="translate(1217.58 6368.37) scale(1.78)" xlink:href="Vestir_personajes6.png"/>
			</g>
		</g>
	</g>
	<g id="torzo" class="carousel slide .carousel-fade p-0 m-0">
		<g id="arregloTorzo" class="carousel-inner p-0 m-0">
			<g id="torzoAndres" class="carousel-item p-0 m-0">
				<image id="Capa_72_Imagen" data-name="Capa 72 Imagen" width="1415" height="927" transform="translate(2371.08 4720) scale(1.78)" xlink:href="Vestir_personajes7.png"/>
			</g>
			<g id="torzoBarbara" class="carousel-item p-0 m-0">
				<image id="Capa_58_Imagen" data-name="Capa 58 Imagen" width="2739" height="927" transform="translate(1082.3 4720) scale(1.78)" xlink:href="Vestir_personajes8.png"/>
			</g>
			<g id="torzoNicolas" class="carousel-item p-0 m-0">
				<image id="Capa_66_Imagen" data-name="Capa 66 Imagen" width="1285" height="927" transform="translate(2383.54 4720) scale(1.78)" xlink:href="Vestir_personajes9.png"/>
			</g>
			<g id="torzoLuna" class="carousel-item p-0 m-0">
				<image id="Capa_69_Imagen" data-name="Capa 69 Imagen" width="2118" height="927" transform="translate(1833.5 4720) scale(1.78)" xlink:href="Vestir_personajes10.png"/>
			</g>
			<g id="torzoVictor" class="carousel-item p-0 m-0">
				<image id="Capa_60_Imagen" data-name="Capa 60 Imagen" width="1313" height="927" transform="translate(2371.08 4720) scale(1.78)" xlink:href="Vestir_personajes11.png"/>
			</g>
			<g id="torzoMariana" class="carousel-item p-0 m-0">
				<image id="Capa_63_Imagen" data-name="Capa 63 Imagen" width="2312" height="927" transform="translate(1212.24 4720) scale(1.78)" xlink:href="Vestir_personajes12.png"/>
			</g>
		</g>
	</g>
	<g id="cabezas" class="carousel slide .carousel-fade p-0 m-0">
		<g id="arregloCabezas" class="carousel-inner p-0 m-0">
			<g id="cabezaAndres" class="carousel-item p-0 m-0">
				<image id="Capa_71_Imagen" data-name="Capa 71 Imagen" width="2304" height="2001" transform="translate(1253.19 1159.82) scale(1.78)" xlink:href="Vestir_personajes13.png"/>
			</g>
			<g id="cabezaBarbara" class="carousel-item p-0 m-0">
				<image id="Capa_57_Imagen" data-name="Capa 57 Imagen" width="2826" height="2033" transform="translate(1052.03 1102.85) scale(1.78)" xlink:href="Vestir_personajes14.png"/>
			</g>
			<g id="cabezaNicolas" class="carousel-item p-0 m-0">
				<image id="Capa_65_Imagen" data-name="Capa 65 Imagen" width="2114" height="2081" transform="translate(1532.66 1017.41) scale(1.78)" xlink:href="Vestir_personajes15.png"/>
			</g>
			<g id="cabezaLuna" class="carousel-item p-0 m-0">
				<image id="Capa_68_Imagen" data-name="Capa 68 Imagen" width="2430" height="1813" transform="translate(1527.32 1494.47) scale(1.78)" xlink:href="Vestir_personajes16.png"/>
			</g>
			<g id="cabezaVictor" class="carousel-item p-0 m-0">
				<image id="Capa_96_Imagen" data-name="Capa 96 Imagen" width="2869" height="1975" transform="translate(1260.31 1206.1) scale(1.78)" xlink:href="Vestir_personajes17.png"/>
			</g>
			<g id="cabezaMariana" class="carousel-item p-0 m-0">
				<image id="Capa_62_Imagen" data-name="Capa 62 Imagen" width="2271" height="2030" transform="translate(1126.8 1108.19) scale(1.78)" xlink:href="Vestir_personajes18.png"/>
			</g>
		</g>
	</g>

	<g class="carousel-buttons">

		<g id="derechaPiernas" class="carousel-control-next" type="button" data-bs-target="#piernas" data-bs-slide="next">
			<g id="grupo">
			<circle cx="7327.72" cy="7659.28" r="294.51" style="fill: #65c191; stroke: #449368; stroke-miterlimit: 10; stroke-width: 14.83px;"/>
			<g>
				<line x1="7116.13" y1="7659.28" x2="7360.26" y2="7659.28" style="fill: none; stroke: #fff; stroke-miterlimit: 10; stroke-width: 29.67px;"/>
				<path d="m7539.31,7659.28c-84.25,31.26-188.79,84.6-253.58,141.1l51.04-141.1-51.04-141.07c64.8,56.5,169.33,109.84,253.58,141.07Z" style="fill: #fff;"/>
			</g>
			</g>
		</g>
		<g id="izquierdaPiernas" class="carousel-control-prev" type="button" data-bs-target="#piernas" data-bs-slide="prev">
			<g id="grupo-2" data-name="grupo">
			<circle cx="354.26" cy="7659.28" r="294.51" style="fill: #65c191; stroke: #449368; stroke-miterlimit: 10; stroke-width: 14.83px;"/>
			<g>
				<line x1="565.85" y1="7659.28" x2="321.73" y2="7659.28" style="fill: none; stroke: #fff; stroke-miterlimit: 10; stroke-width: 29.67px;"/>
				<path d="m142.67,7659.28c84.25-31.26,188.79-84.6,253.58-141.1l-51.04,141.1,51.04,141.07c-64.8-56.5-169.33-109.84-253.58-141.07Z" style="fill: #fff;"/>
			</g>
			</g>
		</g>
		<g id="derechaTorzo" class="carousel-control-next" type="button" data-bs-target="#torzo" data-bs-slide="next">
			<g id="grupo-3" data-name="grupo">
			<circle cx="7327.72" cy="5545.08" r="294.51" style="fill: #65c191; stroke: #449368; stroke-miterlimit: 10; stroke-width: 14.83px;"/>
			<g>
				<line x1="7116.13" y1="5545.08" x2="7360.26" y2="5545.08" style="fill: none; stroke: #fff; stroke-miterlimit: 10; stroke-width: 29.67px;"/>
				<path d="m7539.31,5545.08c-84.25,31.26-188.79,84.6-253.58,141.1l51.04-141.1-51.04-141.07c64.8,56.5,169.33,109.84,253.58,141.07Z" style="fill: #fff;"/>
			</g>
			</g>
		</g>
		<g id="izquierdaTorzo" class="carousel-control-prev" type="button" data-bs-target="#torzo" data-bs-slide="prev">
			<g id="grupo-4" data-name="grupo">
			<circle cx="354.26" cy="5545.08" r="294.51" style="fill: #65c191; stroke: #449368; stroke-miterlimit: 10; stroke-width: 14.83px;"/>
			<g>
				<line x1="565.85" y1="5545.08" x2="321.73" y2="5545.08" style="fill: none; stroke: #fff; stroke-miterlimit: 10; stroke-width: 29.67px;"/>
				<path d="m142.67,5545.08c84.25-31.26,188.79-84.6,253.58-141.1l-51.04,141.1,51.04,141.07c-64.8-56.5-169.33-109.84-253.58-141.07Z" style="fill: #fff;"/>
			</g>
			</g>
		</g>
		<g id="derechaCabeza" class="carousel-control-next" type="button" data-bs-target="#cabeza" data-bs-slide="next">
			<g id="grupo-5" data-name="grupo">
			<circle cx="7327.72" cy="3430.87" r="294.51" style="fill: #65c191; stroke: #449368; stroke-miterlimit: 10; stroke-width: 14.83px;"/>
			<g>
				<line x1="7116.13" y1="3430.87" x2="7360.26" y2="3430.87" style="fill: none; stroke: #fff; stroke-miterlimit: 10; stroke-width: 29.67px;"/>
				<path d="m7539.31,3430.87c-84.25,31.26-188.79,84.6-253.58,141.1l51.04-141.1-51.04-141.07c64.8,56.5,169.33,109.84,253.58,141.07Z" style="fill: #fff;"/>
			</g>
			</g>
		</g>
		<g id="izquierdaCabeza" class="carousel-control-prev" type="button" data-bs-target="#cabeza" data-bs-slide="prev">
			<g id="grupo-6" data-name="grupo">
			<circle cx="354.26" cy="3430.87" r="294.51" style="fill: #65c191; stroke: #449368; stroke-miterlimit: 10; stroke-width: 14.83px;"/>
			<g>
				<line x1="565.85" y1="3430.87" x2="321.73" y2="3430.87" style="fill: none; stroke: #fff; stroke-miterlimit: 10; stroke-width: 29.67px;"/>
				<path d="m142.67,3430.87c84.25-31.26,188.79-84.6,253.58-141.1l-51.04,141.1,51.04,141.07c-64.8-56.5-169.33-109.84-253.58-141.07Z" style="fill: #fff;"/>
			</g>
			</g>
		</g>

	</g>

	<g id="Capa_26" data-name="Capa 26">
		<rect x="5311.98" y="9496.66" width="2145.62" height="456.87" rx="228.43" ry="228.43" style="fill: #65c191; stroke: #449368; stroke-miterlimit: 10; stroke-width: 14.83px;"/>
	</g>

	<!-- Iconos a iluminar -->
	<g id="monos">
		<g id="mono2">
			<g id="mononieve2">
			<path d="m7153.66,9613.58h96.56c12.16,0,22.04,9.87,22.04,22.04v95.08h-140.64v-95.08c0-12.16,9.87-22.04,22.04-22.04Z" transform="translate(-3534.15 4180.82) rotate(-26.24)" style="fill: #2d2d2d;"/>
			<path d="m7137.27,9699.98l27.49,55.77,126.15-62.18-27.16-55.11s-31.64,3.21-72.17,24.79c-40.52,21.58-54.3,36.73-54.3,36.73Z" style="fill: #848484;"/>
			<ellipse cx="7222.07" cy="9712.87" rx="111.29" ry="35.27" transform="translate(-3550.08 4193.92) rotate(-26.24)" style="fill: #2d2d2d;"/>
			<ellipse cx="7261.11" cy="9774.49" rx="92.12" ry="88.9" style="fill: #d6d6d6;"/>
			<path d="m7168.99,9748.14s60.96-49.77,120.54-62.55c59.59-12.78-37.67-13.47-37.67-13.47l-57.53,24.66-25.34,51.37Z" style="fill: #2d2d2d;"/>
			<circle cx="7243.3" cy="9753.27" r="10.62" style="fill: #2d2d2d;"/>
			<circle cx="7275.18" cy="9817.28" r="4.27" style="fill: #2d2d2d;"/>
			<circle cx="7255.44" cy="9813.01" r="4.27" style="fill: #2d2d2d;"/>
			<circle cx="7295.16" cy="9813.01" r="4.27" style="fill: #2d2d2d;"/>
			<circle cx="7310.04" cy="9804.47" r="4.27" style="fill: #2d2d2d;"/>
			<circle cx="7236.96" cy="9802.99" r="4.27" style="fill: #2d2d2d;"/>
			<circle cx="7305.77" cy="9753.27" r="10.62" style="fill: #2d2d2d;"/>
			<ellipse cx="7220.95" cy="9772.6" rx="8.65" ry="11.31" transform="translate(-4363.05 13440.95) rotate(-71.11)" style="fill: #b7b7b7;"/>
			<ellipse cx="7325.56" cy="9772.6" rx="11.31" ry="8.65" transform="translate(-2769.23 2897.82) rotate(-18.89)" style="fill: #b7b7b7;"/>
			<path d="m7341.58,9781.43c0,5.86-58.1,10.62-63.97,10.62s-10.62-4.75-10.62-10.62,4.75-10.62,10.62-10.62,63.97,4.75,63.97,10.62Z" style="fill: #6b6b6b;"/>
			</g>
		</g>
		<g id="monoAndres" class="invisible">
			<g id="mononieve1">
			<path d="m7153.66,9613.58h96.56c12.16,0,22.04,9.87,22.04,22.04v95.08h-140.64v-95.08c0-12.16,9.87-22.04,22.04-22.04Z" transform="translate(-3534.15 4180.82) rotate(-26.24)" style="fill: #00223a;"/>
			<path d="m7137.27,9699.98l27.49,55.77,126.15-62.18-27.16-55.11s-31.64,3.21-72.17,24.79c-40.52,21.58-54.3,36.73-54.3,36.73Z" style="fill: #e34c5d;"/>
			<ellipse cx="7222.07" cy="9712.87" rx="111.29" ry="35.27" transform="translate(-3550.08 4193.92) rotate(-26.24)" style="fill: #00223a;"/>
			<ellipse cx="7261.11" cy="9774.49" rx="92.12" ry="88.9" style="fill: #fff;"/>
			<path d="m7168.99,9748.14s60.96-49.77,120.54-62.55c59.59-12.78-37.67-13.47-37.67-13.47l-57.53,24.66-25.34,51.37Z" style="fill: #00223a;"/>
			<circle cx="7243.3" cy="9753.27" r="10.62" style="fill: #00223a;"/>
			<circle cx="7275.18" cy="9817.28" r="4.27" style="fill: #00223a;"/>
			<circle cx="7255.44" cy="9813.01" r="4.27" style="fill: #00223a;"/>
			<circle cx="7295.16" cy="9813.01" r="4.27" style="fill: #00223a;"/>
			<circle cx="7310.04" cy="9804.47" r="4.27" style="fill: #00223a;"/>
			<circle cx="7236.96" cy="9802.99" r="4.27" style="fill: #00223a;"/>
			<circle cx="7305.77" cy="9753.27" r="10.62" style="fill: #00223a;"/>
			<ellipse cx="7220.95" cy="9772.6" rx="8.65" ry="11.31" transform="translate(-4363.05 13440.95) rotate(-71.11)" style="fill: #ffa894;"/>
			<ellipse cx="7325.56" cy="9772.6" rx="11.31" ry="8.65" transform="translate(-2769.23 2897.82) rotate(-18.89)" style="fill: #ffa894;"/>
			<path d="m7341.58,9781.43c0,5.86-58.1,10.62-63.97,10.62s-10.62-4.75-10.62-10.62,4.75-10.62,10.62-10.62,63.97,4.75,63.97,10.62Z" style="fill: #ff7200;"/>
			</g>
		</g>
		<g id="gorro2">
			<g id="gorro2-2" data-name="gorro2">
			<path d="m6747.88,9702.49s27.29-32.16,51.84-7.72c24.55,24.45,19.87,85.94,19.87,85.94,0,0,39.38,44.53,120.5,43.93,81.12-.6,86.03-40.05,86.03-40.05,0,0,17.24-97.61-77.08-163.8-47.32-33.21-110.84-32.91-156.66,2.34-.75.57-1.49,1.16-2.24,1.75-59.72,47.64-59.23,81.42-59.23,81.42,0,0,7.75,9.23,16.97-3.82Z" style="fill: #848484;"/>
			<path d="m7025.9,9842.53c-32.77,14.16-116.4,41.06-201.24-6.1-6.43-3.58-12.16-8.35-16.51-14.29-5.8-7.93-10.39-19.25-2.12-30.39,15.03-20.25,28.71-8.54,28.71-8.54,0,0,2.4-15.25,18.49-22.08,16.09-6.83,27.59,8.4,27.59,8.4,0,0,7.72-20.21,25.14-18.04,17.42,2.17,20.5,13.91,20.5,13.91,0,0,11.15-15.45,24.87-10.33,13.71,5.12,18.15,19.28,18.15,19.28,0,0,15.97-14.87,28.64-9.27,12.67,5.6,18.78,21.77,18.78,21.77,0,0,12.25-8.62,24.94,7.58,3.53,4.5,4.98,9.67,5.24,14.8.73,14.38-7.97,27.6-21.18,33.31Z" style="fill: #d6d6d6;"/>
			<path d="m6704.52,9700.53s1.98-12.28,14.76-12.54c12.77-.26,21.12,5.71,20.1,13.58,0,0,16.14.47,17.11,16.46.97,15.99-13.25,16.41-13.25,16.41,0,0,15.23,5.69,3.28,20.5-11.95,14.8-25.7-.91-25.7-.91,0,0-9.16,11.35-21.91.93s-6.1-23.55-6.1-23.55c0,0-12.49-9.1-6.65-20.42,5.84-11.32,18.36-10.46,18.36-10.46Z" style="fill: #d6d6d6;"/>
			<path d="m6835,9784.13s-4.41,20.24,5.24,18.11c9.65-2.12-5.24-18.11-5.24-18.11Z" style="fill: none; stroke: #636363; stroke-miterlimit: 10; stroke-width: .99px;"/>
			<path d="m7016.75,9787.86s-11.28,17.37-1.51,18.79,1.51-18.79,1.51-18.79Z" style="fill: none; stroke: #636363; stroke-miterlimit: 10; stroke-width: .99px;"/>
			<path d="m6969.49,9775.32s-9.86,18.21,0,18.85c9.86.64,0-18.85,0-18.85Z" style="fill: none; stroke: #636363; stroke-miterlimit: 10; stroke-width: .99px;"/>
			<path d="m6926.57,9766.41s-8.58,18.85,1.3,18.81c9.88-.04-1.3-18.81-1.3-18.81Z" style="fill: none; stroke: #636363; stroke-miterlimit: 10; stroke-width: .99px;"/>
			<path d="m6880.97,9770.3s-4.41,20.24,5.24,18.11c9.65-2.12-5.24-18.11-5.24-18.11Z" style="fill: none; stroke: #636363; stroke-miterlimit: 10; stroke-width: .99px;"/>
			<path d="m6738.44,9702.41s-6.97,2.47-5.24,4.76,5.24-4.76,5.24-4.76Z" style="fill: none; stroke: #636363; stroke-miterlimit: 10; stroke-width: .99px;"/>
			<path d="m6742.14,9734.22s-8.56,1.58-7.69-1.55c.87-3.13,7.69,1.55,7.69,1.55Z" style="fill: none; stroke: #636363; stroke-miterlimit: 10; stroke-width: .99px;"/>
			<path d="m6720.33,9752.84s-3.7-3.84-1.77-5.6c1.93-1.76,1.77,5.6,1.77,5.6Z" style="fill: none; stroke: #636363; stroke-miterlimit: 10; stroke-width: .99px;"/>
			<path d="m6693.95,9730.93s5.39-5.56,6.69-2.73c1.29,2.83-6.69,2.73-6.69,2.73Z" style="fill: none; stroke: #636363; stroke-miterlimit: 10; stroke-width: .99px;"/>
			<path d="m6704.96,9701.53s-.53,8.03,2.65,6.63c3.17-1.4-2.65-6.63-2.65-6.63Z" style="fill: none; stroke: #636363; stroke-miterlimit: 10; stroke-width: .99px;"/>
			</g>
		</g>
		<g id="monoBarbara" class="invisible">
			<g id="gorro1-2" data-name="gorro1">
			<path d="m6747.88,9702.49s27.29-32.16,51.84-7.72c24.55,24.45,19.87,85.94,19.87,85.94,0,0,39.38,44.53,120.5,43.93,81.12-.6,86.03-40.05,86.03-40.05,0,0,17.24-97.61-77.08-163.8-47.32-33.21-110.84-32.91-156.66,2.34-.75.57-1.49,1.16-2.24,1.75-59.72,47.64-59.23,81.42-59.23,81.42,0,0,7.75,9.23,16.97-3.82Z" style="fill: #e34c5d;"/>
			<path d="m7025.9,9842.53c-32.77,14.16-116.4,41.06-201.24-6.1-6.43-3.58-12.16-8.35-16.51-14.29-5.8-7.93-10.39-19.25-2.12-30.39,15.03-20.25,28.71-8.54,28.71-8.54,0,0,2.4-15.25,18.49-22.08,16.09-6.83,27.59,8.4,27.59,8.4,0,0,7.72-20.21,25.14-18.04,17.42,2.17,20.5,13.91,20.5,13.91,0,0,11.15-15.45,24.87-10.33,13.71,5.12,18.15,19.28,18.15,19.28,0,0,15.97-14.87,28.64-9.27,12.67,5.6,18.78,21.77,18.78,21.77,0,0,12.25-8.62,24.94,7.58,3.53,4.5,4.98,9.67,5.24,14.8.73,14.38-7.97,27.6-21.18,33.31Z" style="fill: #fff;"/>
			<path d="m6704.52,9700.53s1.98-12.28,14.76-12.54c12.77-.26,21.12,5.71,20.1,13.58,0,0,16.14.47,17.11,16.46.97,15.99-13.25,16.41-13.25,16.41,0,0,15.23,5.69,3.28,20.5-11.95,14.8-25.7-.91-25.7-.91,0,0-9.16,11.35-21.91.93s-6.1-23.55-6.1-23.55c0,0-12.49-9.1-6.65-20.42,5.84-11.32,18.36-10.46,18.36-10.46Z" style="fill: #fff;"/>
			<path d="m6835,9784.13s-4.41,20.24,5.24,18.11c9.65-2.12-5.24-18.11-5.24-18.11Z" style="fill: none; stroke: #ef9ea9; stroke-miterlimit: 10; stroke-width: .99px;"/>
			<path d="m7016.75,9787.86s-11.28,17.37-1.51,18.79,1.51-18.79,1.51-18.79Z" style="fill: none; stroke: #ef9ea9; stroke-miterlimit: 10; stroke-width: .99px;"/>
			<path d="m6969.49,9775.32s-9.86,18.21,0,18.85c9.86.64,0-18.85,0-18.85Z" style="fill: none; stroke: #ef9ea9; stroke-miterlimit: 10; stroke-width: .99px;"/>
			<path d="m6926.57,9766.41s-8.58,18.85,1.3,18.81c9.88-.04-1.3-18.81-1.3-18.81Z" style="fill: none; stroke: #ef9ea9; stroke-miterlimit: 10; stroke-width: .99px;"/>
			<path d="m6880.97,9770.3s-4.41,20.24,5.24,18.11c9.65-2.12-5.24-18.11-5.24-18.11Z" style="fill: none; stroke: #ef9ea9; stroke-miterlimit: 10; stroke-width: .99px;"/>
			<path d="m6738.44,9702.41s-6.97,2.47-5.24,4.76,5.24-4.76,5.24-4.76Z" style="fill: none; stroke: #ef9ea9; stroke-miterlimit: 10; stroke-width: .99px;"/>
			<path d="m6742.14,9734.22s-8.56,1.58-7.69-1.55c.87-3.13,7.69,1.55,7.69,1.55Z" style="fill: none; stroke: #ef9ea9; stroke-miterlimit: 10; stroke-width: .99px;"/>
			<path d="m6720.33,9752.84s-3.7-3.84-1.77-5.6c1.93-1.76,1.77,5.6,1.77,5.6Z" style="fill: none; stroke: #ef9ea9; stroke-miterlimit: 10; stroke-width: .99px;"/>
			<path d="m6693.95,9730.93s5.39-5.56,6.69-2.73c1.29,2.83-6.69,2.73-6.69,2.73Z" style="fill: none; stroke: #ef9ea9; stroke-miterlimit: 10; stroke-width: .99px;"/>
			<path d="m6704.96,9701.53s-.53,8.03,2.65,6.63c3.17-1.4-2.65-6.63-2.65-6.63Z" style="fill: none; stroke: #ef9ea9; stroke-miterlimit: 10; stroke-width: .99px;"/>
			</g>
		</g>
		<g id="galleta2">
			<g id="galleta2-2" data-name="galleta2">
			<g>
				<path d="m6562.17,9818.15h-.05c-.57.05-.99.94-1.56,2.3-.71,1.69-1.69,4-4.2,4.21-2.54.18-3.85-1.92-4.83-3.47-.76-1.21-1.31-2.02-1.87-2.02h-.05c-.57.05-1,.94-1.57,2.3-.71,1.69-1.7,4-4.21,4.2-2.54.2-3.85-1.92-4.83-3.47-.79-1.25-1.28-2.02-1.92-2.02-.58.05-1,.94-1.57,2.3-.71,1.69-1.7,4-4.21,4.21-2.51.24-3.85-1.92-4.83-3.47-.77-1.22-1.32-2.02-1.88-2.02h-.05c-.58.05-1,.94-1.58,2.31-.4.94-.89,2.06-1.67,2.91.64,7.99.95,15.34,1.17,18.87.64,9.89,7.65,14.35,11.75,16.58,4.1,2.23,27.47,5.74,29.7-18.18.51-5.44.2-14.24-.56-24.57-.43-.59-.8-.97-1.17-.97Z" style="fill: #6b6b6b;"/>
				<path d="m6505.88,9816.19c-2.52-.2-3.5-2.52-4.22-4.21-.58-1.36-1-2.25-1.58-2.3-.64.02-1.14.77-1.93,2.02-.98,1.55-2.31,3.65-4.83,3.47-2.52-.2-3.5-2.52-4.21-4.21-.58-1.36-1-2.25-1.57-2.3-.61.02-1.14.77-1.92,2.02-.98,1.55-2.3,3.7-4.83,3.47-2.51-.2-3.49-2.52-4.21-4.2-.57-1.36-.99-2.25-1.57-2.3-.63-.04-1.13.77-1.91,2.02-.97,1.55-2.29,3.66-4.83,3.47-1.21-.1-2.06-.69-2.7-1.46-.18,2.09-.35,4.14-.51,6.14.14.31.28.62.4.9.57,1.36.99,2.25,1.57,2.3.63-.08,1.13-.77,1.92-2.02.98-1.55,2.25-3.66,4.82-3.47,2.51.2,3.49,2.52,4.21,4.2.57,1.36.99,2.25,1.57,2.3.73.06,1.14-.77,1.92-2.02.97-1.55,2.29-3.63,4.83-3.47,2.51.2,3.49,2.51,4.21,4.2.58,1.36,1,2.25,1.57,2.3.69.08,1.14-.77,1.92-2.02.98-1.55,2.26-3.69,4.83-3.47,2.52.2,3.5,2.52,4.22,4.21.58,1.36,1,2.25,1.58,2.3.71.02,1.14-.77,1.93-2.02.29-.46.62-.97.99-1.45.17-1.66.35-3.32.55-4.94-.55.33-1.17.54-1.9.54-.11,0-.22,0-.33-.02Z" style="fill: #6b6b6b;"/>
				<path d="m6560.68,9807.14h-.05c-.57.05-.99.94-1.56,2.3-.71,1.69-1.69,4-4.2,4.21-2.56.18-3.85-1.92-4.83-3.47-.76-1.21-1.31-2.02-1.87-2.02h-.05c-.58.05-1,.94-1.57,2.3-.71,1.69-1.7,4-4.21,4.2-2.53.21-3.86-1.92-4.83-3.47-.79-1.25-1.27-2.05-1.92-2.02-.58.05-1,.94-1.57,2.3-.71,1.69-1.7,4-4.21,4.2-2.54.22-3.86-1.92-4.83-3.47-.77-1.22-1.32-2.02-1.88-2.02h-.05c-.58.05-1,.94-1.58,2.31-.34.8-.74,1.72-1.33,2.51.24,1.88.45,3.81.65,5.74.69-1.3,1.7-2.53,3.5-2.68,2.58-.17,3.86,1.92,4.83,3.47.79,1.25,1.24,2.1,1.93,2.02.58-.05,1-.94,1.57-2.3.71-1.69,1.7-4,4.21-4.21,2.5-.19,3.85,1.92,4.83,3.47.79,1.25,1.24,2.03,1.93,2.02.57-.05,1-.94,1.57-2.3.71-1.69,1.7-4,4.21-4.2,2.53-.22,3.85,1.92,4.83,3.47.79,1.25,1.32,2.01,1.92,2.02.57-.05.99-.94,1.56-2.3.71-1.69,1.69-4,4.2-4.2.42-.04.8,0,1.16.09-.16-1.97-.34-3.97-.52-6.02-.74-1.17-1.28-1.95-1.83-1.95Z" style="fill: #6b6b6b;"/>
				<path d="m6504.39,9827.2c-2.52-.2-3.5-2.51-4.22-4.2-.58-1.36-1-2.26-1.58-2.31-.53.03-1.14.77-1.92,2.02-.98,1.55-2.26,3.66-4.83,3.47-2.52-.2-3.5-2.52-4.21-4.21-.58-1.36-1-2.25-1.57-2.3-.67.05-1.14.77-1.93,2.02-.97,1.55-2.25,3.71-4.83,3.47-2.51-.2-3.49-2.52-4.21-4.2-.57-1.36-.99-2.25-1.57-2.3-.58,0-1.13.77-1.91,2.02-.98,1.55-2.31,3.72-4.83,3.47-.87-.07-1.55-.4-2.1-.87-.55,8.52-.71,15.72-.27,20.41,2.23,23.92,25.61,20.41,29.7,18.18,4.1-2.23,11.11-6.7,11.75-16.58.23-3.53.54-10.89,1.18-18.89-.64.49-1.39.82-2.33.82-.11,0-.22,0-.33-.02Z" style="fill: #6b6b6b;"/>
				<path d="m6456.56,9731.79c-.2-.57-1.08-.76-2.51-1-1.74-.29-4.12-.7-4.95-3.05-.83-2.36.78-4.16,1.96-5.47.97-1.08,1.54-1.78,1.34-2.34-.2-.57-1.08-.76-2.51-1-1.74-.29-4.12-.69-4.95-3.05-.83-2.36.78-4.16,1.96-5.48.96-1.08,1.54-1.78,1.34-2.34-.2-.56-1.08-.75-2.5-.99-1.74-.29-4.12-.69-4.95-3.04-.08-.24-.12-.46-.16-.68-5.44,2.2-11.13,4.99-16.95,8.69-4.58,2.91-7.71,7.83-7.76,13.27-.03,3.06.84,6.51,3.54,9.97,4.96,6.35,11.28,7.76,15.34,7.92,2.24.09,4.43-.49,6.4-1.57,2.63-1.45,7.3-3.85,12.84-6,.38-.55.81-1.04,1.2-1.48.96-1.08,1.54-1.78,1.33-2.35Z" style="fill: #6b6b6b;"/>
				<path d="m6604.65,9712.03c-4.45-2.83-8.82-5.11-13.07-7.03,1.08,1.26,2.22,2.89,1.5,4.94-.82,2.36-3.21,2.76-4.95,3.05-1.43.24-2.31.43-2.51.99-.2.57.37,1.27,1.34,2.35,1.17,1.32,2.78,3.12,1.96,5.48-.82,2.35-3.21,2.76-4.95,3.05-1.43.24-2.31.43-2.5.99-.2.57.37,1.27,1.34,2.35,1.17,1.32,2.78,3.12,1.95,5.48-.83,2.36-3.21,2.76-4.95,3.06-.76.13-1.36.25-1.79.42,3.79,1.65,6.95,3.28,8.97,4.39,2.28,1.25,4.88,1.81,7.47,1.6,4.06-.34,9.82-1.98,14.41-7.86,2.74-3.5,3.6-7.01,3.54-10.1-.09-5.39-3.22-10.25-7.77-13.14Z" style="fill: #6b6b6b;"/>
				<path d="m6579.28,9733.63c1.43-.24,2.31-.43,2.51-1,.2-.57-.37-1.27-1.34-2.35-1.17-1.32-2.78-3.12-1.95-5.48.82-2.35,3.21-2.76,4.95-3.05,1.43-.24,2.31-.43,2.5-.99.2-.57-.37-1.27-1.34-2.35-1.17-1.32-2.78-3.12-1.96-5.47.82-2.36,3.21-2.76,4.95-3.05,1.43-.24,2.31-.43,2.5-.99.2-.56-.37-1.26-1.34-2.34-.85-.95-1.92-2.17-2.14-3.66-18.81-7.38-34.42-7.45-40.91-10.7-7.27-3.63-10.3-8.96-11.19-10.83,15.43-7.41,26.01-23.32,25.53-41.7-.6-23.25-19.57-42.64-42.8-43.72-25.81-1.2-47.11,19.37-47.11,44.91,0,17.25,9.71,32.23,23.96,39.77,0,0-2.6,7.11-11.53,11.57-6.23,3.11-20.84,3.31-38.63,9.83-.22.36-.31.67-.22.94.2.56,1.08.75,2.5.99,1.74.29,4.12.69,4.95,3.04.83,2.36-.78,4.16-1.96,5.48-.96,1.08-1.54,1.78-1.34,2.34.2.57,1.08.75,2.51.99,1.74.29,4.12.69,4.95,3.05.83,2.35-.78,4.15-1.96,5.47-.96,1.08-1.54,1.77-1.34,2.34.2.57,1.08.76,2.51,1,1.74.29,4.12.7,4.95,3.06.4,1.12.23,2.12-.17,3,3.88-1.22,7.96-2.17,11.94-2.51,2.21-.19,4,1.78,3.68,3.97-1.64,11.19-6.21,43.34-8.85,70.72.34.6.62,1.22.85,1.78.57,1.36.99,2.25,1.57,2.3.61-.01,1.13-.77,1.92-2.02.97-1.55,2.37-3.68,4.82-3.47,2.51.2,3.49,2.52,4.21,4.2.57,1.36.99,2.25,1.57,2.3.73.07,1.14-.77,1.92-2.02.98-1.55,2.28-3.64,4.83-3.47,2.51.2,3.49,2.51,4.21,4.2.58,1.36,1,2.25,1.57,2.3.69-.03,1.14-.77,1.92-2.02.98-1.55,2.28-3.69,4.83-3.47,2.52.2,3.5,2.52,4.22,4.21.58,1.36,1,2.25,1.58,2.3.72.03,1.15-.77,1.93-2.02.27-.42.57-.89.9-1.34,1.18-7.09,2.84-12.7,5.19-13.9,2.34,1.2,3.99,6.76,5.18,13.82.69-1.26,1.69-2.42,3.44-2.57,2.47-.19,3.86,1.92,4.84,3.47.79,1.25,1.23,2.04,1.93,2.02.58-.05,1-.94,1.57-2.3.71-1.69,1.7-4,4.21-4.2,2.45-.21,3.85,1.92,4.83,3.47.79,1.25,1.25,2.02,1.93,2.02.57-.05.99-.94,1.57-2.3.71-1.69,1.7-4,4.21-4.21,2.58-.22,3.85,1.92,4.83,3.47.79,1.25,1.32,2.01,1.92,2.02.57-.05.99-.94,1.56-2.3.71-1.69,1.69-4,4.2-4.21.62-.06,1.17.03,1.66.22-2.66-27-7.09-58.07-8.69-69.03-.32-2.19,1.47-4.16,3.68-3.97,6.04.51,12.33,2.43,17.75,4.57,1.05-1.57,3.01-1.92,4.5-2.17Z" style="fill: #6b6b6b;"/>
				<path d="m6459.52,9730.75c-.82-2.36-3.21-2.76-4.95-3.06-1.43-.24-2.31-.43-2.51-1-.2-.56.37-1.26,1.34-2.34,1.18-1.32,2.79-3.12,1.96-5.47-.82-2.36-3.21-2.76-4.95-3.05-1.43-.24-2.31-.43-2.51-.99-.2-.57.37-1.26,1.34-2.34,1.18-1.32,2.79-3.12,1.96-5.48-.83-2.35-3.21-2.75-4.95-3.04-1.43-.24-2.31-.43-2.5-.99-.1-.27,0-.58.22-.94-1.1.4-2.21.84-3.34,1.3.04.22.08.45.16.68.83,2.35,3.21,2.75,4.95,3.04,1.43.24,2.31.43,2.5.99.2.57-.37,1.26-1.34,2.34-1.18,1.32-2.79,3.12-1.96,5.48.83,2.36,3.21,2.76,4.95,3.05,1.43.24,2.31.43,2.51,1,.2.56-.37,1.26-1.34,2.34-1.18,1.32-2.79,3.11-1.96,5.47.83,2.36,3.21,2.76,4.95,3.05,1.43.24,2.31.43,2.51,1,.2.57-.37,1.27-1.33,2.35-.39.44-.82.93-1.2,1.48,1.7-.66,3.49-1.29,5.32-1.87.4-.88.57-1.87.17-3Z" style="fill: #d6d6d6;"/>
				<path d="m6584.75,9733.67c.83-2.36-.78-4.16-1.95-5.48-.97-1.08-1.54-1.78-1.34-2.35.2-.56,1.08-.75,2.5-.99,1.74-.29,4.12-.69,4.95-3.05.83-2.36-.78-4.16-1.96-5.48-.96-1.08-1.54-1.78-1.34-2.35.2-.56,1.08-.75,2.51-.99,1.74-.29,4.12-.69,4.95-3.05.72-2.05-.41-3.69-1.5-4.94-1.67-.75-3.32-1.45-4.94-2.09.21,1.49,1.29,2.7,2.14,3.66.97,1.08,1.54,1.78,1.34,2.34-.2.57-1.08.75-2.5.99-1.74.29-4.13.69-4.95,3.05-.83,2.35.78,4.16,1.96,5.47.97,1.08,1.54,1.78,1.34,2.35-.2.56-1.08.75-2.5.99-1.74.29-4.12.69-4.95,3.05-.83,2.36.78,4.16,1.95,5.48.97,1.08,1.54,1.78,1.34,2.35-.2.57-1.08.76-2.51,1-1.49.25-3.44.59-4.5,2.17,1.12.44,2.2.89,3.23,1.34.43-.17,1.03-.29,1.79-.42,1.74-.29,4.12-.7,4.95-3.06Z" style="fill: #d6d6d6;"/>
				<path d="m6556.17,9808.22c-.57,1.36-.99,2.25-1.56,2.3-.6,0-1.13-.77-1.92-2.02-.98-1.55-2.25-3.69-4.83-3.47-2.52.2-3.5,2.52-4.21,4.21-.58,1.36-1,2.25-1.57,2.3-.67,0-1.14-.77-1.93-2.02-.97-1.55-2.38-3.68-4.83-3.47-2.52.2-3.5,2.51-4.21,4.2-.58,1.36-1,2.25-1.57,2.3-.7.02-1.14-.77-1.93-2.02-.98-1.55-2.37-3.66-4.84-3.47-1.75.14-2.75,1.31-3.44,2.57.29,1.72.55,3.52.79,5.38.59-.79.99-1.72,1.33-2.51.58-1.36,1-2.26,1.58-2.31h.05c.56,0,1.11.8,1.88,2.02.98,1.55,2.3,3.69,4.83,3.47,2.52-.2,3.5-2.52,4.21-4.2.58-1.36,1-2.26,1.57-2.3.66-.03,1.13.77,1.92,2.02.97,1.55,2.31,3.68,4.83,3.47,2.51-.2,3.49-2.51,4.21-4.2.58-1.36,1-2.25,1.57-2.3h.05c.56,0,1.11.8,1.87,2.02.97,1.55,2.27,3.65,4.83,3.47,2.51-.2,3.49-2.52,4.2-4.21.57-1.36.99-2.25,1.56-2.3h.05c.55,0,1.09.78,1.83,1.95-.15-1.6-.3-3.22-.47-4.86-.49-.19-1.04-.28-1.66-.22-2.51.2-3.49,2.52-4.2,4.21Z" style="fill: #d6d6d6;"/>
				<path d="m6557.67,9819.23c-.57,1.36-.99,2.25-1.56,2.3-.6,0-1.13-.77-1.92-2.02-.97-1.55-2.29-3.69-4.83-3.47-2.51.2-3.49,2.52-4.21,4.2-.58,1.36-1,2.25-1.57,2.3-.69,0-1.14-.77-1.93-2.02-.97-1.55-2.33-3.66-4.83-3.47-2.52.2-3.5,2.52-4.21,4.21-.58,1.36-1,2.25-1.57,2.3-.7.08-1.14-.77-1.93-2.02-.98-1.55-2.26-3.65-4.83-3.47-1.8.14-2.81,1.37-3.5,2.68.19,1.9.36,3.8.51,5.67.78-.85,1.27-1.98,1.67-2.91.58-1.36,1-2.26,1.58-2.31h.05c.56,0,1.11.8,1.88,2.02.98,1.55,2.32,3.71,4.83,3.47,2.52-.2,3.5-2.52,4.21-4.21.58-1.36,1-2.25,1.57-2.3.65,0,1.13.77,1.92,2.02.98,1.55,2.29,3.67,4.83,3.47,2.51-.2,3.49-2.52,4.21-4.2.58-1.36,1-2.25,1.57-2.3h.05c.56,0,1.11.8,1.87,2.02.97,1.55,2.29,3.66,4.83,3.47,2.51-.2,3.49-2.52,4.2-4.21.57-1.36.99-2.25,1.56-2.3h.05c.37,0,.74.38,1.17.97-.1-1.31-.2-2.65-.31-4.01-.36-.08-.74-.12-1.16-.09-2.51.2-3.49,2.52-4.2,4.2Z" style="fill: #d6d6d6;"/>
				<path d="m6506.13,9813.06c-.58-.05-1-.94-1.58-2.3-.72-1.69-1.7-4-4.22-4.21-2.56-.22-3.86,1.92-4.83,3.47-.78,1.25-1.23,1.98-1.92,2.02-.58-.05-1-.94-1.57-2.3-.71-1.69-1.7-4-4.21-4.2-2.55-.17-3.85,1.92-4.83,3.47-.78,1.25-1.19,2.08-1.92,2.02-.57-.05-.99-.94-1.57-2.3-.72-1.69-1.7-4-4.21-4.2-2.46-.21-3.85,1.92-4.82,3.47-.78,1.25-1.3,2-1.92,2.02-.57-.05-.99-.94-1.57-2.3-.24-.56-.51-1.19-.85-1.78-.19,1.95-.37,3.86-.53,5.75.64.77,1.49,1.36,2.7,1.46,2.54.18,3.85-1.92,4.83-3.47.78-1.25,1.29-2.06,1.91-2.02.57.05.99.94,1.57,2.3.72,1.69,1.7,4,4.21,4.2,2.53.23,3.85-1.92,4.83-3.47.78-1.24,1.31-2,1.92-2.02.57.05.99.94,1.57,2.3.71,1.69,1.7,4,4.21,4.21,2.52.18,3.85-1.92,4.83-3.47.79-1.25,1.28-2,1.93-2.02.58.05,1,.94,1.58,2.3.72,1.69,1.7,4,4.22,4.21.11,0,.22.02.33.02.73,0,1.35-.22,1.9-.54.25-2.06.54-4.06.85-5.95-.34.45-.64.92-.9,1.34-.78,1.25-1.21,2.04-1.93,2.02Z" style="fill: #d6d6d6;"/>
				<path d="m6504.64,9824.07c-.58-.05-1-.94-1.58-2.3-.72-1.69-1.7-4-4.22-4.21-2.58-.22-3.85,1.92-4.83,3.47-.78,1.25-1.23,2.09-1.92,2.02-.58-.05-1-.94-1.57-2.3-.71-1.69-1.7-4-4.21-4.2-2.54-.16-3.86,1.92-4.83,3.47-.78,1.25-1.19,2.08-1.92,2.02-.57-.05-.99-.94-1.57-2.3-.72-1.69-1.7-4-4.21-4.2-2.57-.18-3.84,1.93-4.82,3.47-.78,1.25-1.29,1.94-1.92,2.02-.57-.05-.99-.94-1.57-2.3-.12-.29-.26-.59-.4-.9-.14,1.87-.27,3.7-.39,5.47.55.46,1.23.8,2.1.87,2.52.24,3.85-1.92,4.83-3.47.78-1.25,1.33-2.02,1.91-2.02.57.05.99.94,1.57,2.3.72,1.69,1.7,4,4.21,4.2,2.58.24,3.85-1.92,4.83-3.47.79-1.24,1.25-1.97,1.93-2.02.57.05.99.94,1.57,2.3.71,1.69,1.7,4,4.21,4.21,2.57.18,3.85-1.92,4.83-3.47.78-1.24,1.39-1.98,1.92-2.02.58.05,1,.94,1.58,2.31.72,1.69,1.7,4,4.22,4.2.11,0,.22.02.33.02.93,0,1.69-.33,2.33-.82.15-1.91.32-3.85.52-5.79-.37.48-.7.99-.99,1.45-.79,1.25-1.22,2.04-1.93,2.02Z" style="fill: #d6d6d6;"/>
			</g>
			<circle cx="6514.16" cy="9745.96" r="7" style="fill: #848484;"/>
			<circle cx="6514.16" cy="9777.62" r="7" style="fill: #848484;"/>
			<circle cx="6514.16" cy="9715.89" r="7" style="fill: #848484;"/>
			<path d="m6507.92,9651.93c-.2-2.13,2.37-3.34,4.04-2.01,1.19.95,2.98,1.61,5.31.31.05-.03.09-.05.14-.08,2.39-1.29,4.04,1.72,2.22,3.74-1.35,1.49-3.16,1.97-4.65,2.07-3.25.21-6.73-1.22-7.05-3.95,0-.03,0-.05,0-.08Z" style="fill: none; stroke: #474747; stroke-miterlimit: 10; stroke-width: 3.14px;"/>
			<g>
				<circle cx="6494.39" cy="9634.66" r="11.29" style="fill: #2d2d2d;"/>
				<circle cx="6533.93" cy="9634.66" r="11.29" style="fill: #2d2d2d;"/>
			</g>
			<g>
				<ellipse cx="6544.54" cy="9649.37" rx="6.01" ry="4.83" transform="translate(-3947.88 4565.04) rotate(-30)" style="fill: #b7b7b7;"/>
				<ellipse cx="6483.78" cy="9649.37" rx="4.83" ry="6.01" transform="translate(-5114.71 10439.8) rotate(-60)" style="fill: #b7b7b7;"/>
			</g>
			<circle cx="6491.43" cy="9631.02" r="2.96" style="fill: #d6d6d6;"/>
			<circle cx="6498.1" cy="9639.62" r="2.96" style="fill: #d6d6d6;"/>
			<circle cx="6529.51" cy="9631.02" r="2.96" style="fill: #d6d6d6;"/>
			<circle cx="6536.18" cy="9639.62" r="2.96" style="fill: #d6d6d6;"/>
			<ellipse cx="6492.11" cy="9616.04" rx="4.89" ry="2.12" transform="translate(-1359.46 1073.88) rotate(-8.56)" style="fill: #2d2d2d;"/>
			<ellipse cx="6533.93" cy="9616.04" rx="2.12" ry="4.89" transform="translate(-3947.82 14645.3) rotate(-81.44)" style="fill: #2d2d2d;"/>
			</g>
		</g>
		<g id="monoNicolas" class="invisible">
			<g id="galleta1-2" data-name="galleta1">
			<g>
				<path d="m6562.17,9818.15h-.05c-.57.05-.99.94-1.56,2.3-.71,1.69-1.69,4-4.2,4.21-2.54.18-3.85-1.92-4.83-3.47-.76-1.21-1.31-2.02-1.87-2.02h-.05c-.57.05-1,.94-1.57,2.3-.71,1.69-1.7,4-4.21,4.2-2.54.2-3.85-1.92-4.83-3.47-.79-1.25-1.28-2.02-1.92-2.02-.58.05-1,.94-1.57,2.3-.71,1.69-1.7,4-4.21,4.21-2.51.24-3.85-1.92-4.83-3.47-.77-1.22-1.32-2.02-1.88-2.02h-.05c-.58.05-1,.94-1.58,2.31-.4.94-.89,2.06-1.67,2.91.64,7.99.95,15.34,1.17,18.87.64,9.89,7.65,14.35,11.75,16.58,4.1,2.23,27.47,5.74,29.7-18.18.51-5.44.2-14.24-.56-24.57-.43-.59-.8-.97-1.17-.97Z" style="fill: #a45508;"/>
				<path d="m6505.88,9816.19c-2.52-.2-3.5-2.52-4.22-4.21-.58-1.36-1-2.25-1.58-2.3-.64.02-1.14.77-1.93,2.02-.98,1.55-2.31,3.65-4.83,3.47-2.52-.2-3.5-2.52-4.21-4.21-.58-1.36-1-2.25-1.57-2.3-.61.02-1.14.77-1.92,2.02-.98,1.55-2.3,3.7-4.83,3.47-2.51-.2-3.49-2.52-4.21-4.2-.57-1.36-.99-2.25-1.57-2.3-.63-.04-1.13.77-1.91,2.02-.97,1.55-2.29,3.66-4.83,3.47-1.21-.1-2.06-.69-2.7-1.46-.18,2.09-.35,4.14-.51,6.14.14.31.28.62.4.9.57,1.36.99,2.25,1.57,2.3.63-.08,1.13-.77,1.92-2.02.98-1.55,2.25-3.66,4.82-3.47,2.51.2,3.49,2.52,4.21,4.2.57,1.36.99,2.25,1.57,2.3.73.06,1.14-.77,1.92-2.02.97-1.55,2.29-3.63,4.83-3.47,2.51.2,3.49,2.51,4.21,4.2.58,1.36,1,2.25,1.57,2.3.69.08,1.14-.77,1.92-2.02.98-1.55,2.26-3.69,4.83-3.47,2.52.2,3.5,2.52,4.22,4.21.58,1.36,1,2.25,1.58,2.3.71.02,1.14-.77,1.93-2.02.29-.46.62-.97.99-1.45.17-1.66.35-3.32.55-4.94-.55.33-1.17.54-1.9.54-.11,0-.22,0-.33-.02Z" style="fill: #a45508;"/>
				<path d="m6560.68,9807.14h-.05c-.57.05-.99.94-1.56,2.3-.71,1.69-1.69,4-4.2,4.21-2.56.18-3.85-1.92-4.83-3.47-.76-1.21-1.31-2.02-1.87-2.02h-.05c-.58.05-1,.94-1.57,2.3-.71,1.69-1.7,4-4.21,4.2-2.53.21-3.86-1.92-4.83-3.47-.79-1.25-1.27-2.05-1.92-2.02-.58.05-1,.94-1.57,2.3-.71,1.69-1.7,4-4.21,4.2-2.54.22-3.86-1.92-4.83-3.47-.77-1.22-1.32-2.02-1.88-2.02h-.05c-.58.05-1,.94-1.58,2.31-.34.8-.74,1.72-1.33,2.51.24,1.88.45,3.81.65,5.74.69-1.3,1.7-2.53,3.5-2.68,2.58-.17,3.86,1.92,4.83,3.47.79,1.25,1.24,2.1,1.93,2.02.58-.05,1-.94,1.57-2.3.71-1.69,1.7-4,4.21-4.21,2.5-.19,3.85,1.92,4.83,3.47.79,1.25,1.24,2.03,1.93,2.02.57-.05,1-.94,1.57-2.3.71-1.69,1.7-4,4.21-4.2,2.53-.22,3.85,1.92,4.83,3.47.79,1.25,1.32,2.01,1.92,2.02.57-.05.99-.94,1.56-2.3.71-1.69,1.69-4,4.2-4.2.42-.04.8,0,1.16.09-.16-1.97-.34-3.97-.52-6.02-.74-1.17-1.28-1.95-1.83-1.95Z" style="fill: #a45508;"/>
				<path d="m6504.39,9827.2c-2.52-.2-3.5-2.51-4.22-4.2-.58-1.36-1-2.26-1.58-2.31-.53.03-1.14.77-1.92,2.02-.98,1.55-2.26,3.66-4.83,3.47-2.52-.2-3.5-2.52-4.21-4.21-.58-1.36-1-2.25-1.57-2.3-.67.05-1.14.77-1.93,2.02-.97,1.55-2.25,3.71-4.83,3.47-2.51-.2-3.49-2.52-4.21-4.2-.57-1.36-.99-2.25-1.57-2.3-.58,0-1.13.77-1.91,2.02-.98,1.55-2.31,3.72-4.83,3.47-.87-.07-1.55-.4-2.1-.87-.55,8.52-.71,15.72-.27,20.41,2.23,23.92,25.61,20.41,29.7,18.18,4.1-2.23,11.11-6.7,11.75-16.58.23-3.53.54-10.89,1.18-18.89-.64.49-1.39.82-2.33.82-.11,0-.22,0-.33-.02Z" style="fill: #a45508;"/>
				<path d="m6456.56,9731.79c-.2-.57-1.08-.76-2.51-1-1.74-.29-4.12-.7-4.95-3.05-.83-2.36.78-4.16,1.96-5.47.97-1.08,1.54-1.78,1.34-2.34-.2-.57-1.08-.76-2.51-1-1.74-.29-4.12-.69-4.95-3.05-.83-2.36.78-4.16,1.96-5.48.96-1.08,1.54-1.78,1.34-2.34-.2-.56-1.08-.75-2.5-.99-1.74-.29-4.12-.69-4.95-3.04-.08-.24-.12-.46-.16-.68-5.44,2.2-11.13,4.99-16.95,8.69-4.58,2.91-7.71,7.83-7.76,13.27-.03,3.06.84,6.51,3.54,9.97,4.96,6.35,11.28,7.76,15.34,7.92,2.24.09,4.43-.49,6.4-1.57,2.63-1.45,7.3-3.85,12.84-6,.38-.55.81-1.04,1.2-1.48.96-1.08,1.54-1.78,1.33-2.35Z" style="fill: #a45508;"/>
				<path d="m6604.65,9712.03c-4.45-2.83-8.82-5.11-13.07-7.03,1.08,1.26,2.22,2.89,1.5,4.94-.82,2.36-3.21,2.76-4.95,3.05-1.43.24-2.31.43-2.51.99-.2.57.37,1.27,1.34,2.35,1.17,1.32,2.78,3.12,1.96,5.48-.82,2.35-3.21,2.76-4.95,3.05-1.43.24-2.31.43-2.5.99-.2.57.37,1.27,1.34,2.35,1.17,1.32,2.78,3.12,1.95,5.48-.83,2.36-3.21,2.76-4.95,3.06-.76.13-1.36.25-1.79.42,3.79,1.65,6.95,3.28,8.97,4.39,2.28,1.25,4.88,1.81,7.47,1.6,4.06-.34,9.82-1.98,14.41-7.86,2.74-3.5,3.6-7.01,3.54-10.1-.09-5.39-3.22-10.25-7.77-13.14Z" style="fill: #a45508;"/>
				<path d="m6579.28,9733.63c1.43-.24,2.31-.43,2.51-1,.2-.57-.37-1.27-1.34-2.35-1.17-1.32-2.78-3.12-1.95-5.48.82-2.35,3.21-2.76,4.95-3.05,1.43-.24,2.31-.43,2.5-.99.2-.57-.37-1.27-1.34-2.35-1.17-1.32-2.78-3.12-1.96-5.47.82-2.36,3.21-2.76,4.95-3.05,1.43-.24,2.31-.43,2.5-.99.2-.56-.37-1.26-1.34-2.34-.85-.95-1.92-2.17-2.14-3.66-18.81-7.38-34.42-7.45-40.91-10.7-7.27-3.63-10.3-8.96-11.19-10.83,15.43-7.41,26.01-23.32,25.53-41.7-.6-23.25-19.57-42.64-42.8-43.72-25.81-1.2-47.11,19.37-47.11,44.91,0,17.25,9.71,32.23,23.96,39.77,0,0-2.6,7.11-11.53,11.57-6.23,3.11-20.84,3.31-38.63,9.83-.22.36-.31.67-.22.94.2.56,1.08.75,2.5.99,1.74.29,4.12.69,4.95,3.04.83,2.36-.78,4.16-1.96,5.48-.96,1.08-1.54,1.78-1.34,2.34.2.57,1.08.75,2.51.99,1.74.29,4.12.69,4.95,3.05.83,2.35-.78,4.15-1.96,5.47-.96,1.08-1.54,1.77-1.34,2.34.2.57,1.08.76,2.51,1,1.74.29,4.12.7,4.95,3.06.4,1.12.23,2.12-.17,3,3.88-1.22,7.96-2.17,11.94-2.51,2.21-.19,4,1.78,3.68,3.97-1.64,11.19-6.21,43.34-8.85,70.72.34.6.62,1.22.85,1.78.57,1.36.99,2.25,1.57,2.3.61-.01,1.13-.77,1.92-2.02.97-1.55,2.37-3.68,4.82-3.47,2.51.2,3.49,2.52,4.21,4.2.57,1.36.99,2.25,1.57,2.3.73.07,1.14-.77,1.92-2.02.98-1.55,2.28-3.64,4.83-3.47,2.51.2,3.49,2.51,4.21,4.2.58,1.36,1,2.25,1.57,2.3.69-.03,1.14-.77,1.92-2.02.98-1.55,2.28-3.69,4.83-3.47,2.52.2,3.5,2.52,4.22,4.21.58,1.36,1,2.25,1.58,2.3.72.03,1.15-.77,1.93-2.02.27-.42.57-.89.9-1.34,1.18-7.09,2.84-12.7,5.19-13.9,2.34,1.2,3.99,6.76,5.18,13.82.69-1.26,1.69-2.42,3.44-2.57,2.47-.19,3.86,1.92,4.84,3.47.79,1.25,1.23,2.04,1.93,2.02.58-.05,1-.94,1.57-2.3.71-1.69,1.7-4,4.21-4.2,2.45-.21,3.85,1.92,4.83,3.47.79,1.25,1.25,2.02,1.93,2.02.57-.05.99-.94,1.57-2.3.71-1.69,1.7-4,4.21-4.21,2.58-.22,3.85,1.92,4.83,3.47.79,1.25,1.32,2.01,1.92,2.02.57-.05.99-.94,1.56-2.3.71-1.69,1.69-4,4.2-4.21.62-.06,1.17.03,1.66.22-2.66-27-7.09-58.07-8.69-69.03-.32-2.19,1.47-4.16,3.68-3.97,6.04.51,12.33,2.43,17.75,4.57,1.05-1.57,3.01-1.92,4.5-2.17Z" style="fill: #a45508;"/>
				<path d="m6459.52,9730.75c-.82-2.36-3.21-2.76-4.95-3.06-1.43-.24-2.31-.43-2.51-1-.2-.56.37-1.26,1.34-2.34,1.18-1.32,2.79-3.12,1.96-5.47-.82-2.36-3.21-2.76-4.95-3.05-1.43-.24-2.31-.43-2.51-.99-.2-.57.37-1.26,1.34-2.34,1.18-1.32,2.79-3.12,1.96-5.48-.83-2.35-3.21-2.75-4.95-3.04-1.43-.24-2.31-.43-2.5-.99-.1-.27,0-.58.22-.94-1.1.4-2.21.84-3.34,1.3.04.22.08.45.16.68.83,2.35,3.21,2.75,4.95,3.04,1.43.24,2.31.43,2.5.99.2.57-.37,1.26-1.34,2.34-1.18,1.32-2.79,3.12-1.96,5.48.83,2.36,3.21,2.76,4.95,3.05,1.43.24,2.31.43,2.51,1,.2.56-.37,1.26-1.34,2.34-1.18,1.32-2.79,3.11-1.96,5.47.83,2.36,3.21,2.76,4.95,3.05,1.43.24,2.31.43,2.51,1,.2.57-.37,1.27-1.33,2.35-.39.44-.82.93-1.2,1.48,1.7-.66,3.49-1.29,5.32-1.87.4-.88.57-1.87.17-3Z" style="fill: #fff;"/>
				<path d="m6584.75,9733.67c.83-2.36-.78-4.16-1.95-5.48-.97-1.08-1.54-1.78-1.34-2.35.2-.56,1.08-.75,2.5-.99,1.74-.29,4.12-.69,4.95-3.05.83-2.36-.78-4.16-1.96-5.48-.96-1.08-1.54-1.78-1.34-2.35.2-.56,1.08-.75,2.51-.99,1.74-.29,4.12-.69,4.95-3.05.72-2.05-.41-3.69-1.5-4.94-1.67-.75-3.32-1.45-4.94-2.09.21,1.49,1.29,2.7,2.14,3.66.97,1.08,1.54,1.78,1.34,2.34-.2.57-1.08.75-2.5.99-1.74.29-4.13.69-4.95,3.05-.83,2.35.78,4.16,1.96,5.47.97,1.08,1.54,1.78,1.34,2.35-.2.56-1.08.75-2.5.99-1.74.29-4.12.69-4.95,3.05-.83,2.36.78,4.16,1.95,5.48.97,1.08,1.54,1.78,1.34,2.35-.2.57-1.08.76-2.51,1-1.49.25-3.44.59-4.5,2.17,1.12.44,2.2.89,3.23,1.34.43-.17,1.03-.29,1.79-.42,1.74-.29,4.12-.7,4.95-3.06Z" style="fill: #fff;"/>
				<path d="m6556.17,9808.22c-.57,1.36-.99,2.25-1.56,2.3-.6,0-1.13-.77-1.92-2.02-.98-1.55-2.25-3.69-4.83-3.47-2.52.2-3.5,2.52-4.21,4.21-.58,1.36-1,2.25-1.57,2.3-.67,0-1.14-.77-1.93-2.02-.97-1.55-2.38-3.68-4.83-3.47-2.52.2-3.5,2.51-4.21,4.2-.58,1.36-1,2.25-1.57,2.3-.7.02-1.14-.77-1.93-2.02-.98-1.55-2.37-3.66-4.84-3.47-1.75.14-2.75,1.31-3.44,2.57.29,1.72.55,3.52.79,5.38.59-.79.99-1.72,1.33-2.51.58-1.36,1-2.26,1.58-2.31h.05c.56,0,1.11.8,1.88,2.02.98,1.55,2.3,3.69,4.83,3.47,2.52-.2,3.5-2.52,4.21-4.2.58-1.36,1-2.26,1.57-2.3.66-.03,1.13.77,1.92,2.02.97,1.55,2.31,3.68,4.83,3.47,2.51-.2,3.49-2.51,4.21-4.2.58-1.36,1-2.25,1.57-2.3h.05c.56,0,1.11.8,1.87,2.02.97,1.55,2.27,3.65,4.83,3.47,2.51-.2,3.49-2.52,4.2-4.21.57-1.36.99-2.25,1.56-2.3h.05c.55,0,1.09.78,1.83,1.95-.15-1.6-.3-3.22-.47-4.86-.49-.19-1.04-.28-1.66-.22-2.51.2-3.49,2.52-4.2,4.21Z" style="fill: #fff;"/>
				<path d="m6557.67,9819.23c-.57,1.36-.99,2.25-1.56,2.3-.6,0-1.13-.77-1.92-2.02-.97-1.55-2.29-3.69-4.83-3.47-2.51.2-3.49,2.52-4.21,4.2-.58,1.36-1,2.25-1.57,2.3-.69,0-1.14-.77-1.93-2.02-.97-1.55-2.33-3.66-4.83-3.47-2.52.2-3.5,2.52-4.21,4.21-.58,1.36-1,2.25-1.57,2.3-.7.08-1.14-.77-1.93-2.02-.98-1.55-2.26-3.65-4.83-3.47-1.8.14-2.81,1.37-3.5,2.68.19,1.9.36,3.8.51,5.67.78-.85,1.27-1.98,1.67-2.91.58-1.36,1-2.26,1.58-2.31h.05c.56,0,1.11.8,1.88,2.02.98,1.55,2.32,3.71,4.83,3.47,2.52-.2,3.5-2.52,4.21-4.21.58-1.36,1-2.25,1.57-2.3.65,0,1.13.77,1.92,2.02.98,1.55,2.29,3.67,4.83,3.47,2.51-.2,3.49-2.52,4.21-4.2.58-1.36,1-2.25,1.57-2.3h.05c.56,0,1.11.8,1.87,2.02.97,1.55,2.29,3.66,4.83,3.47,2.51-.2,3.49-2.52,4.2-4.21.57-1.36.99-2.25,1.56-2.3h.05c.37,0,.74.38,1.17.97-.1-1.31-.2-2.65-.31-4.01-.36-.08-.74-.12-1.16-.09-2.51.2-3.49,2.52-4.2,4.2Z" style="fill: #fff;"/>
				<path d="m6506.13,9813.06c-.58-.05-1-.94-1.58-2.3-.72-1.69-1.7-4-4.22-4.21-2.56-.22-3.86,1.92-4.83,3.47-.78,1.25-1.23,1.98-1.92,2.02-.58-.05-1-.94-1.57-2.3-.71-1.69-1.7-4-4.21-4.2-2.55-.17-3.85,1.92-4.83,3.47-.78,1.25-1.19,2.08-1.92,2.02-.57-.05-.99-.94-1.57-2.3-.72-1.69-1.7-4-4.21-4.2-2.46-.21-3.85,1.92-4.82,3.47-.78,1.25-1.3,2-1.92,2.02-.57-.05-.99-.94-1.57-2.3-.24-.56-.51-1.19-.85-1.78-.19,1.95-.37,3.86-.53,5.75.64.77,1.49,1.36,2.7,1.46,2.54.18,3.85-1.92,4.83-3.47.78-1.25,1.29-2.06,1.91-2.02.57.05.99.94,1.57,2.3.72,1.69,1.7,4,4.21,4.2,2.53.23,3.85-1.92,4.83-3.47.78-1.24,1.31-2,1.92-2.02.57.05.99.94,1.57,2.3.71,1.69,1.7,4,4.21,4.21,2.52.18,3.85-1.92,4.83-3.47.79-1.25,1.28-2,1.93-2.02.58.05,1,.94,1.58,2.3.72,1.69,1.7,4,4.22,4.21.11,0,.22.02.33.02.73,0,1.35-.22,1.9-.54.25-2.06.54-4.06.85-5.95-.34.45-.64.92-.9,1.34-.78,1.25-1.21,2.04-1.93,2.02Z" style="fill: #fff;"/>
				<path d="m6504.64,9824.07c-.58-.05-1-.94-1.58-2.3-.72-1.69-1.7-4-4.22-4.21-2.58-.22-3.85,1.92-4.83,3.47-.78,1.25-1.23,2.09-1.92,2.02-.58-.05-1-.94-1.57-2.3-.71-1.69-1.7-4-4.21-4.2-2.54-.16-3.86,1.92-4.83,3.47-.78,1.25-1.19,2.08-1.92,2.02-.57-.05-.99-.94-1.57-2.3-.72-1.69-1.7-4-4.21-4.2-2.57-.18-3.84,1.93-4.82,3.47-.78,1.25-1.29,1.94-1.92,2.02-.57-.05-.99-.94-1.57-2.3-.12-.29-.26-.59-.4-.9-.14,1.87-.27,3.7-.39,5.47.55.46,1.23.8,2.1.87,2.52.24,3.85-1.92,4.83-3.47.78-1.25,1.33-2.02,1.91-2.02.57.05.99.94,1.57,2.3.72,1.69,1.7,4,4.21,4.2,2.58.24,3.85-1.92,4.83-3.47.79-1.24,1.25-1.97,1.93-2.02.57.05.99.94,1.57,2.3.71,1.69,1.7,4,4.21,4.21,2.57.18,3.85-1.92,4.83-3.47.78-1.24,1.39-1.98,1.92-2.02.58.05,1,.94,1.58,2.31.72,1.69,1.7,4,4.22,4.2.11,0,.22.02.33.02.93,0,1.69-.33,2.33-.82.15-1.91.32-3.85.52-5.79-.37.48-.7.99-.99,1.45-.79,1.25-1.22,2.04-1.93,2.02Z" style="fill: #fff;"/>
			</g>
			<circle cx="6514.16" cy="9745.96" r="7" style="fill: #ce44b0;"/>
			<circle cx="6514.16" cy="9777.62" r="7" style="fill: #ce44b0;"/>
			<circle cx="6514.16" cy="9715.89" r="7" style="fill: #ce44b0;"/>
			<path d="m6507.92,9651.93c-.2-2.13,2.37-3.34,4.04-2.01,1.19.95,2.98,1.61,5.31.31.05-.03.09-.05.14-.08,2.39-1.29,4.04,1.72,2.22,3.74-1.35,1.49-3.16,1.97-4.65,2.07-3.25.21-6.73-1.22-7.05-3.95,0-.03,0-.05,0-.08Z" style="fill: none; stroke: #e34c5d; stroke-miterlimit: 10; stroke-width: 3.14px;"/>
			<g>
				<circle cx="6494.39" cy="9634.66" r="11.29" style="fill: #552a00;"/>
				<circle cx="6533.93" cy="9634.66" r="11.29" style="fill: #552a00;"/>
			</g>
			<g>
				<ellipse cx="6544.54" cy="9649.37" rx="6.01" ry="4.83" transform="translate(-3947.88 4565.04) rotate(-30)" style="fill: #ffa894;"/>
				<ellipse cx="6483.78" cy="9649.37" rx="4.83" ry="6.01" transform="translate(-5114.71 10439.8) rotate(-60)" style="fill: #ffa894;"/>
			</g>
			<circle cx="6491.43" cy="9631.02" r="2.96" style="fill: #fff;"/>
			<circle cx="6498.1" cy="9639.62" r="2.96" style="fill: #fff;"/>
			<circle cx="6529.51" cy="9631.02" r="2.96" style="fill: #fff;"/>
			<circle cx="6536.18" cy="9639.62" r="2.96" style="fill: #fff;"/>
			<ellipse cx="6492.11" cy="9616.04" rx="4.89" ry="2.12" transform="translate(-1359.46 1073.88) rotate(-8.56)" style="fill: #552a00;"/>
			<ellipse cx="6533.93" cy="9616.04" rx="2.12" ry="4.89" transform="translate(-3947.82 14645.3) rotate(-81.44)" style="fill: #552a00;"/>
			</g>
		</g>
		<g id="estrella2">
			<g>
				<path d="m6351.66,9708.45c5.24-5.11,2.35-14.01-4.89-15.06l-71.33-10.36c-5.56-.81-10.36-4.3-12.84-9.33l-31.9-64.63c-3.24-6.56-12.6-6.56-15.84,0l-31.9,64.63c-2.49,5.03-7.29,8.52-12.84,9.33l-71.33,10.36c-7.24,1.05-10.14,9.95-4.89,15.06l51.61,50.31c4.02,3.92,5.85,9.57,4.91,15.1l-12.18,71.04c-1.24,7.21,6.33,12.71,12.81,9.31l54.94-28.88-1.47,23.69c-.21,3.37,2.47,6.22,5.85,6.22h24.83c3.38,0,6.06-2.85,5.85-6.22l-1.47-23.69,54.94,28.88c6.48,3.41,14.05-2.1,12.81-9.31l-12.18-71.04c-.95-5.53.89-11.18,4.91-15.1l51.61-50.31Z" style="fill: #999;"/>
				<path d="m6222.78,9615.21c2.49,16.7,3.06,33.47,3.14,50.29-.07,16.82-.64,33.59-3.14,50.29-2.5-16.7-3.07-33.47-3.14-50.29.08-16.82.65-33.59,3.14-50.29h0Z" style="fill: #d6d6d6;"/>
				<path d="m6341.43,9702.54c-14.86,8.8-30.5,15.86-46.38,22.48-15.94,6.48-32.02,12.48-48.77,16.67,14.85-8.81,30.5-15.86,46.38-22.47,15.94-6.47,32.02-12.47,48.77-16.67h0Z" style="fill: #d6d6d6;"/>
				<path d="m6102.34,9702.54c18.75,4.9,36.83,11.6,54.78,18.77,17.89,7.31,35.54,15.06,52.42,24.59-18.75-4.89-36.84-11.59-54.78-18.77-17.88-7.32-35.54-15.08-52.42-24.59h0Z" style="fill: #d6d6d6;"/>
				<path d="m6148.72,9844.67c5.95-12.81,13.52-24.58,21.52-36.13,8.13-11.46,16.63-22.58,26.66-32.52-5.94,12.82-13.51,24.59-21.52,36.13-8.14,11.45-16.64,22.57-26.66,32.53h0Z" style="fill: #d6d6d6;"/>
				<path d="m6236.64,9760.96c11.87,12.46,22.22,26.09,32.19,40.04,9.85,14.04,19.27,28.32,27.07,43.67-11.88-12.46-22.23-26.08-32.19-40.04-9.84-14.05-19.26-28.33-27.07-43.67h0Z" style="fill: #d6d6d6;"/>
			</g>
		</g>
		<g id="monoLuna" class="invisible">
			<g>
				<path d="m6351.66,9708.45c5.24-5.11,2.35-14.01-4.89-15.06l-71.33-10.36c-5.56-.81-10.36-4.3-12.84-9.33l-31.9-64.63c-3.24-6.56-12.6-6.56-15.84,0l-31.9,64.63c-2.49,5.03-7.29,8.52-12.84,9.33l-71.33,10.36c-7.24,1.05-10.14,9.95-4.89,15.06l51.61,50.31c4.02,3.92,5.85,9.57,4.91,15.1l-12.18,71.04c-1.24,7.21,6.33,12.71,12.81,9.31l54.94-28.88-1.47,23.69c-.21,3.37,2.47,6.22,5.85,6.22h24.83c3.38,0,6.06-2.85,5.85-6.22l-1.47-23.69,54.94,28.88c6.48,3.41,14.05-2.1,12.81-9.31l-12.18-71.04c-.95-5.53.89-11.18,4.91-15.1l51.61-50.31Z" style="fill: #fee004;"/>
				<path d="m6222.78,9615.21c2.49,16.7,3.06,33.47,3.14,50.29-.07,16.82-.64,33.59-3.14,50.29-2.5-16.7-3.07-33.47-3.14-50.29.08-16.82.65-33.59,3.14-50.29h0Z" style="fill: #fff;"/>
				<path d="m6341.43,9702.54c-14.86,8.8-30.5,15.86-46.38,22.48-15.94,6.48-32.02,12.48-48.77,16.67,14.85-8.81,30.5-15.86,46.38-22.47,15.94-6.47,32.02-12.47,48.77-16.67h0Z" style="fill: #fff;"/>
				<path d="m6102.34,9702.54c18.75,4.9,36.83,11.6,54.78,18.77,17.89,7.31,35.54,15.06,52.42,24.59-18.75-4.89-36.84-11.59-54.78-18.77-17.88-7.32-35.54-15.08-52.42-24.59h0Z" style="fill: #fff;"/>
				<path d="m6148.72,9844.67c5.95-12.81,13.52-24.58,21.52-36.13,8.13-11.46,16.63-22.58,26.66-32.52-5.94,12.82-13.51,24.59-21.52,36.13-8.14,11.45-16.64,22.57-26.66,32.53h0Z" style="fill: #fff;"/>
				<path d="m6236.64,9760.96c11.87,12.46,22.22,26.09,32.19,40.04,9.85,14.04,19.27,28.32,27.07,43.67-11.88-12.46-22.23-26.08-32.19-40.04-9.84-14.05-19.26-28.33-27.07-43.67h0Z" style="fill: #fff;"/>
			</g>
		</g>
		<g id="cuernos2">
			<g id="cuernos2-2" data-name="cuernos2">
			<g>
				<path d="m5822.23,9790.54c-.25,6.35,4.25,11.88,10.5,12.97,4.66.82,10.23,1.32,15.49.6,12.35-1.68,0,17.97,0,17.97,0,0-64.2,27.08-118.68,2.37-54.47-24.71-74.5-64.14-71.7-107.94,0,0,0-15.16,10.67-14.6,7.68.4,12.45,17.39,14.52,26.88,1.61,7.39,3.93,14.61,7.22,21.43,2.97,6.16,6.79,12.25,10.83,14.02,8.99,3.93,11.23-2.81,11.23-2.81,0,0,3.37-11.82-12.92-59.54s7.86-81.41,7.86-81.41c0,0,9.5-12.81,25.27-8.42,14.97,4.16,18.53,20.22,15.16,50.54-3.37,30.32-8.99,76.93-1.12,83.67,7.86,6.74,6.74-11.23,6.74-11.23,0,0-5.62-71.32,14.04-69.63,19.65,1.68,12.35,35.38,12.35,35.38,0,0-20.92,67.17,3.23,85.7,24.15,18.53,24.85-.04,24.85-.04,0,0-.56-35.12,8.99-35.12s6.18,20.82,5.62,35.12l-.16,4.09Z" style="fill: #2d2d2d;"/>
				<path d="m5894.76,9790.54c.25,6.35-4.25,11.88-10.5,12.97-4.66.82-10.23,1.32-15.49.6-12.35-1.68,0,17.97,0,17.97,0,0,64.2,27.08,118.68,2.37,54.47-24.71,74.5-64.14,71.7-107.94,0,0,0-15.16-10.67-14.6-7.68.4-12.45,17.39-14.52,26.88-1.61,7.39-3.93,14.61-7.22,21.43-2.97,6.16-6.79,12.25-10.83,14.02-8.99,3.93-11.23-2.81-11.23-2.81,0,0-3.37-11.82,12.92-59.54s-7.86-81.41-7.86-81.41c0,0-9.5-12.81-25.27-8.42-14.97,4.16-18.53,20.22-15.16,50.54,3.37,30.32,8.99,76.93,1.12,83.67-7.86,6.74-6.74-11.23-6.74-11.23,0,0,5.62-71.32-14.04-69.63-19.65,1.68-12.35,35.38-12.35,35.38,0,0,20.92,67.17-3.23,85.7-24.15,18.53-24.85-.04-24.85-.04,0,0,.56-35.12-8.99-35.12s-6.18,20.82-5.62,35.12l.16,4.09Z" style="fill: #2d2d2d;"/>
			</g>
			<circle cx="5858.49" cy="9815.16" r="33.07" style="fill: #848484;"/>
			<path d="m5833.93,9807.28s4.94-16.01,19.78-16.53c11.69-.4,0,0-8.49,13.11-11.64,17.97-15.39,17.79-11.29,3.42Z" style="fill: #d6d6d6;"/>
			</g>
		</g>
		<g id="monoVictor" class="invisible">
			<g id="cuernos1-2" data-name="cuernos1">
			<g>
				<path d="m5822.23,9790.54c-.25,6.35,4.25,11.88,10.5,12.97,4.66.82,10.23,1.32,15.49.6,12.35-1.68,0,17.97,0,17.97,0,0-64.2,27.08-118.68,2.37-54.47-24.71-74.5-64.14-71.7-107.94,0,0,0-15.16,10.67-14.6,7.68.4,12.45,17.39,14.52,26.88,1.61,7.39,3.93,14.61,7.22,21.43,2.97,6.16,6.79,12.25,10.83,14.02,8.99,3.93,11.23-2.81,11.23-2.81,0,0,3.37-11.82-12.92-59.54s7.86-81.41,7.86-81.41c0,0,9.5-12.81,25.27-8.42,14.97,4.16,18.53,20.22,15.16,50.54-3.37,30.32-8.99,76.93-1.12,83.67,7.86,6.74,6.74-11.23,6.74-11.23,0,0-5.62-71.32,14.04-69.63,19.65,1.68,12.35,35.38,12.35,35.38,0,0-20.92,67.17,3.23,85.7,24.15,18.53,24.85-.04,24.85-.04,0,0-.56-35.12,8.99-35.12s6.18,20.82,5.62,35.12l-.16,4.09Z" style="fill: #552a00;"/>
				<path d="m5894.76,9790.54c.25,6.35-4.25,11.88-10.5,12.97-4.66.82-10.23,1.32-15.49.6-12.35-1.68,0,17.97,0,17.97,0,0,64.2,27.08,118.68,2.37,54.47-24.71,74.5-64.14,71.7-107.94,0,0,0-15.16-10.67-14.6-7.68.4-12.45,17.39-14.52,26.88-1.61,7.39-3.93,14.61-7.22,21.43-2.97,6.16-6.79,12.25-10.83,14.02-8.99,3.93-11.23-2.81-11.23-2.81,0,0-3.37-11.82,12.92-59.54s-7.86-81.41-7.86-81.41c0,0-9.5-12.81-25.27-8.42-14.97,4.16-18.53,20.22-15.16,50.54,3.37,30.32,8.99,76.93,1.12,83.67-7.86,6.74-6.74-11.23-6.74-11.23,0,0,5.62-71.32-14.04-69.63-19.65,1.68-12.35,35.38-12.35,35.38,0,0,20.92,67.17-3.23,85.7-24.15,18.53-24.85-.04-24.85-.04,0,0,.56-35.12-8.99-35.12s-6.18,20.82-5.62,35.12l.16,4.09Z" style="fill: #552a00;"/>
			</g>
			<circle cx="5858.49" cy="9815.16" r="33.07" style="fill: #e34c5d;"/>
			<path d="m5833.93,9807.28s4.94-16.01,19.78-16.53c11.69-.4,0,0-8.49,13.11-11.64,17.97-15.39,17.79-11.29,3.42Z" style="fill: #fff;"/>
			</g>
		</g>
		<g id="caramelo2">
			<g id="caramelo2-2" data-name="caramelo2">
				<path d="m5609.66,9829.72c-2.34-5.39-4.88-11.32-7.6-17.68-42.68-99.69-84.89-190.48-132.01-206.25-12.58-4.21-25.14-3.04-36.32,3.37-13.03,7.47-21.48,18.9-24.44,33.06-6.83,32.64,18.39,70.39,24.29,78.65,3.36-10.44,18.06-23.55,25.86-29.28-7.17-11.98-15.65-30.33-13.28-41.66.55-2.64,1.7-5.45,6.3-8.09,1.58-.9,2.94-1.22,5.63-.32,35,11.71,87.09,133.39,109.33,185.35,2.75,6.42,5.31,12.41,7.67,17.85,3.08,7.1,10.01,11.34,17.29,11.34,2.5,0,5.05-.5,7.49-1.56,9.54-4.14,13.92-15.23,9.78-24.78Z" style="fill: #848484;"/>
				<path d="m5433.58,9720.87c.39.54.69.96.9,1.24,6.2,8.36,17.99,10.12,26.35,3.92,8.36-6.19,10.11-17.99,3.92-26.35-1.51-2.04-3.36-4.84-5.31-8.09-7.8,5.73-22.5,18.84-25.86,29.28Z" style="fill: #b7b7b7;"/>
				<path d="m5549.18,9784.95l-9.59-21.04c13.09-13.6,17.52-21.47,24.77-35.9l10.37,21.97c-5.92,19.31-18.92,29.39-25.55,34.96Z" style="fill: #b7b7b7;"/>
				<path d="m5463.87,9644.59c-10.55-8.57-16.62,2.18-16.62,2.18-3.36-14.38-11.1-24.12-21.25-32.29,0,0,13.54-11.18,26.11-11.06,6.36,9.54,13.69,26.31,11.76,41.16Z" style="fill: #b7b7b7;"/>
				<path d="m5446.4,9660.55c2.34,11.88,6.66,19.14,6.66,19.14-16.41.14-32.39,4.62-37.16,9.24-3.73-8.96-7.78-21.9-7.63-30.73,9.63-6.22,26.3-7.78,38.14,2.35Z" style="fill: #b7b7b7;"/>
				<path d="m5490.49,9673.28l-13.51-17.38c11.13-13.89,14.46-17.54,20.3-32.64,0,0,11.13,10.73,16.33,17.87-3.94,10.77-16.5,26.58-23.12,32.15Z" style="fill: #b7b7b7;"/>
				<path d="m5521.74,9727.23l-10.68-20.22c13.09-13.6,15.78-21.21,23.03-35.64l12.18,21.09c-5.92,19.31-17.91,29.19-24.53,34.76Z" style="fill: #b7b7b7;"/>
				<path d="m5573.92,9841.98l-9.21-21.46c13.09-13.6,17.95-22.62,25.21-37.05l9.37,22.11c-5.92,19.31-18.75,30.82-25.37,36.39Z" style="fill: #b7b7b7;"/>
			</g>
		</g>
		<g id="monoMariana" class="invisible">
			<g id="caramelo1-2" data-name="caramelo1">
				<path d="m5609.66,9829.72c-2.34-5.39-4.88-11.32-7.6-17.68-42.68-99.69-84.89-190.48-132.01-206.25-12.58-4.21-25.14-3.04-36.32,3.37-13.03,7.47-21.48,18.9-24.44,33.06-6.83,32.64,18.39,70.39,24.29,78.65,3.36-10.44,18.06-23.55,25.86-29.28-7.17-11.98-15.65-30.33-13.28-41.66.55-2.64,1.7-5.45,6.3-8.09,1.58-.9,2.94-1.22,5.63-.32,35,11.71,87.09,133.39,109.33,185.35,2.75,6.42,5.31,12.41,7.67,17.85,3.08,7.1,10.01,11.34,17.29,11.34,2.5,0,5.05-.5,7.49-1.56,9.54-4.14,13.92-15.23,9.78-24.78Z" style="fill: #ee96a2;"/>
				<path d="m5433.58,9720.87c.39.54.69.96.9,1.24,6.2,8.36,17.99,10.12,26.35,3.92,8.36-6.19,10.11-17.99,3.92-26.35-1.51-2.04-3.36-4.84-5.31-8.09-7.8,5.73-22.5,18.84-25.86,29.28Z" style="fill: #e34c5d;"/>
				<path d="m5549.18,9784.95l-9.59-21.04c13.09-13.6,17.52-21.47,24.77-35.9l10.37,21.97c-5.92,19.31-18.92,29.39-25.55,34.96Z" style="fill: #e34c5d;"/>
				<path d="m5463.87,9644.59c-10.55-8.57-16.62,2.18-16.62,2.18-3.36-14.38-11.1-24.12-21.25-32.29,0,0,13.54-11.18,26.11-11.06,6.36,9.54,13.69,26.31,11.76,41.16Z" style="fill: #e34c5d;"/>
				<path d="m5446.4,9660.55c2.34,11.88,6.66,19.14,6.66,19.14-16.41.14-32.39,4.62-37.16,9.24-3.73-8.96-7.78-21.9-7.63-30.73,9.63-6.22,26.3-7.78,38.14,2.35Z" style="fill: #e34c5d;"/>
				<path d="m5490.49,9673.28l-13.51-17.38c11.13-13.89,14.46-17.54,20.3-32.64,0,0,11.13,10.73,16.33,17.87-3.94,10.77-16.5,26.58-23.12,32.15Z" style="fill: #e34c5d;"/>
				<path d="m5521.74,9727.23l-10.68-20.22c13.09-13.6,15.78-21.21,23.03-35.64l12.18,21.09c-5.92,19.31-17.91,29.19-24.53,34.76Z" style="fill: #e34c5d;"/>
				<path d="m5573.92,9841.98l-9.21-21.46c13.09-13.6,17.95-22.62,25.21-37.05l9.37,22.11c-5.92,19.31-18.75,30.82-25.37,36.39Z" style="fill: #e34c5d;"/>
			</g>
		</g>
	</g>
</svg>